
<svg xmlns="http://www.w3.org/2000/svg" preserveAspectRatio="none" viewBox="0 0 509 763"><path class="cls-1" d="m502.68 734.81-.47 1.33h-.92l-.36.47h-.6l-.35.47h-.51c-.26 0-.39.52-.75.56s-.41.77-.85.88c-.25.06-.47.55-.68.87s-.4.71-.54 1h-.74l-1.23 1.82h-.82c-.36.27-.68.38-.86.67s-.6.12-.92.37c0 .14-.05.34-.1.65l-.76 1.07h-.29c-.22.62-.43 1.26-.66 1.88-.17.44-.21 1-.55 1.28s-.14.86-.44 1.14c-.09.08-.08.39-.12.57l-2.32 3.46h-4.38l-.23.34s-.08.11-.12.11h-1.84l-.28.42-.33-.38-.33.4h-.59l-.35.48H475l-.32.45c-.35.09-.81 0-1.27 0l-.22.34c-.29.27-.61 0-.93.07l-.39.44c-.39 0-.82.23-1.24-.3-.19-.24-.6-.1-.89-.12l-1.17-1.77h-2.08l-.24.36H465l-.4.47h-.93l-.31-.39c-.22.52-.78.27-.91.89h-.86c-.29.22-.58.47-.89.67s-.68.24-.95.52-.7.1-1.06.2l-.34-.44a5.6 5.6 0 0 0-.33.44h-.62l-.6.88-.34-.38h-1l-.42.87h-.74l-.34.47h-.61l-.38-.51c-.26.17-.53.51-.78.48s-.52.33-.78.42l-.25-.36h-.94c-.17.17-.31.5-.62.47s-.24.49-.56.42l-.56-.47c-.35.16-.49.6-.8 1h-4.06l-.29.43h-5.92l-.36.47h-1.23l-.35.48h-5.31l-.27.4-.48-.47-.49.43-.49-.45-.49.54h-6.84l-.34.47h-.31l-.26-.39h-2.59l-.24.36h-.69l-.26-.39h-1l-.33.42h-.93l-.32-.44H412l-.32-.46h-.63l-.31.45a1.31 1.31 0 0 1-.52 0c-.22-.09-.42-.36-.65-.43a2.15 2.15 0 0 0-.71 0l-.29-.43h-1.89l-.33.42H402l-.34.47-.23-.33c-.22-.25-.48-.09-.72-.1l-.33.43h-.83l-.52-.5-.68.56-.49-.51h-2.14l-.46.58-.58-.65-.64.47h-.87l-.28-.42h-10l-.3-.43h-3.73l-.34-.46-.33.43-.28-.41c-.6-.13-1.27 0-1.93-.08l-.26-.38h-1.19l-.41-.47h-1l-.48-1h-1l-.7-.57c-.29-.28-.33-.35-.37-.35h-8l-1.29-1-.4.51h-1.78l-.5-.57-.48.59h-.3l-.26-.39h-1.63l-.38.47-1.27-1h-1.12l-.34-.47-.32.44h-.63l-.23-.34c-.4-.32-.73 0-1.07.27a4.46 4.46 0 0 0-.24-.35l-.33.36h-1.22l-.35.47h-.93l-.3-.44c-.69-.07-1.46 0-2.23-.05l-.26-.38H344l-.26.38-.34-.41h-2.18l-.32.43h-2.81l-.33-.45h-.61l-.33.45h-.63l-.27-.4h-2.21l-.29.33a1.05 1.05 0 0 0-.95-.38l-.34.46h-2.49c-.23-.54-.71-.46-1-.9-.1-.15-.39 0-.57 0l-.6.89h-3.35l-1.12 1h-1.1l-.57-.45-.48-.42-.26.38-.33-.38-.31.39-.33-.43h-1.57l-.56.86h-1.66c-.44-.42-.42-1.35-.89-1.77l-.66.92h-.92l-.27.39h-1l-.33-.37h-1l-.46 1c-.27-.33-.42-.59-.73-.58-.15 0-.24-.49-.57-.41l-.48.51-.53-.44-.28.33c-.32.09-.72-.09-.94.5h-.94l-.33-.46H304l-.24-.35c-.28-.06-.41.59-.76.37s-.41.42-.65.44-.51.12-.72-.24c-.09-.14-.26-.18-.38-.26l-.39.5h-.92l-.33-.45h-.94l-.27.41c-.71.16-1.49 0-2.25.08l-.26.38H289l-.51-.47-.52.5h-6.49l-.35.48h-1.55l-.34.45c-.07-.11-.14-.3-.22-.31-.65-.07-1.19-.8-1.86-.6l-.88-.73v-.46s-.07-.15-.11-.15h-1.59l-.31.42H273l-.32-.45h-1.88l-.27.4h-2.25l-.4-.49-.68.6-.51-.5h-.57l-.33.44h-2.19l-.21-.32c-.1-.05-.19-.13-.28-.13h-1.69l-.41.54-.62-.5h-1.09l-.4-.47h-.62c-.15-.26-.43-.53-.44-.82 0-.58-.34-.73-.57-1.13l-.67.48h-.82l-.32-.37h-1.28l-.27.4h-4.35l-.37.47h-1.24l-.32-.44h-.94l-.22.33c-.09 0-.19.12-.28.12h-1.39l-.35-.44-.26.39h-7.26l-.27-.39h-.95l-.32.43h-.93l-.33-.45-.27.4c-.4.17-.86 0-1.27.08l-.3-.45-.34.39h-1.9c-.15-.06-.25-.6-.6-.41l-.33.44h-1.54l-.34.45-.29-.42c-.38-.09-.84 0-1.26 0l-.29.43-.34-.39h-.62l-.33.41h-4.66l-.34.47-.33-.45c-.43-.13-.66.81-1.29.34l-.4-.4-.53.47h-6.88l-.27-.39-.33.44h-3.74l-.34.31c-.34.16-.47-.25-.65-.44h-.85l-.52.53-.51-.46-.3.38H201l-.5.58-.49-.55h-.61l-.41.53-.55-.46-.3.35h-1.86l-.32-.42h-.3l-.34.46h-2.19l-.23-.33c-.22-.24-.48-.09-.73-.09l-.25.38h-3.66l-.58.55-.67-.56-.49.51H185l-.33-.45h-1.87l-.23.33a.63.63 0 0 1-.28.12h-2l-.44-.54-.54.46-.3-.36h-5l-.32.43h-2.18l-.23-.31c-.09 0-.18-.14-.27-.14h-3.27l-.23.34a.82.82 0 0 1-.28.11h-2.62l-.28-.42h-1.93l-.26.39-.32-.39-.38.39c-.36.1-.42-.31-.59-.42h-2.19l-.26.39h-.71l-.24-.36H156l-.59-.58-.53.52h-2.11l-.35.48h-.61l-.35-.48h-9.06l-.27-.39h-1.33l-.41.49-.57-.52h-2.13c-.18.1-.28.61-.62.43l-.33-.46h-.93l-.32.46c-.35.18-.45-.33-.76-.5l-.51.42-.28-.34-.33.42h-.92l-.64-.9c-.35-.19-.45.33-.68.44h-.8l-.53.51-.67-.56-.49.51H128l-.34.46h-.94l-.22-.33c-.29-.24-.6-.08-1-.13-.3-.25-.62-.72-1.16-.25a1.3 1.3 0 0 1-.15.22l-.32-.39-.33.42h-1.23l-.31.52h-1.85l-.41.53-.59-.47-.24.36h-1.31l-.47-1.08-.69 1.08h-3.15l-.32.46-.32-.38h-2.24l-.27.4H108l-.35.48H107l-.39-.54-.6.42-.31-.34h-2.15l-.3-.44h-2.78l-.38-.49c-.18 0-.41.08-.58 0s-.36-.44-.66-.49-.37-.5-.63-.88h-1.5l-.38.44c-.52.4-.93-.75-1.65-.28l-.22.29h-.65l-.46-.78v-1.79c-.09-.11-.13-.18-.17-.19a1.59 1.59 0 0 0-.34 0l-.2-.85-1.08-.07c0-.23-.06-.44-.11-.73s-.43-.1-.67-.17c-.08.09-.21.16-.22.27a5.4 5.4 0 0 1-1.24 2.67v1.19l-.83.07-.43 1c-.42-.67-1.07-.56-1.22-1.42a2.48 2.48 0 0 1 .08-.41 1.46 1.46 0 0 1 .22-.33c-.39-.94-1.21-.92-1.77-1.7l-.58 1.11-.66-.52c-.13 0-.17.36-.39.53q0 .48-.06 1.11a3.73 3.73 0 0 1-.43.18 2.92 2.92 0 0 1-.65 1.33h-.71l-.19-.86c-.07-.22-.37 0-.59-.06a2.43 2.43 0 0 1-.47-.39l-.25.37h-.69l-.52-1-.34.5h-1l-.15 1.38h-1.17c0-.41-.08-.84-.16-1.65l-.51 1.23h-1.39c-.32.27-.15.69-.22 1.26l-.64.59h-.15c-.27-.47-.07-1-.12-1.54s-.57-.52-.26-1.17h-1.21l-.36.89h-.83l-.32-.45h-4.7l-.23.33c-.23.23-.48.1-.73.09l-.58-.86-.34.41h-.61l-.33-.44h-.92l-.34-.45-.22.33s-.08.11-.12.11h-1.5l-.42.51-.67-.48v1.16c-.27.42-.57 0-.88.3 0-.75 0-1.27-.06-1.76-.35-.41-.73 0-1-.24l-.37.52h-.61c-.26.3-.1.72-.14 1l-.44.89-.34-.49h-1l-.43-1h-1.15c-.59.71-1.44.78-1.85 1.83-.51-.22-.84.45-1.29.48-.63 1.05-1.18.2-1.71-.22a5 5 0 0 1-.8-1.14h-.44a1.65 1.65 0 0 0-.32.12v1.08c-.21.37-.5.06-.71.22l-.77-1.07c-.23.33-.44.65-.7 1-.36 0-.47-.62-.78-.94L42 758.2v.8c-.13.35-.32.36-.53.23a4.45 4.45 0 0 1-.1-1.55c-.26-.41-.56-.22-.89-.12 0 .19 0 .4-.09.64-.29.44-.69 0-1 .24l-.39-.52h-2.45c-.31.34-.49.94-1 1-.19 0-.47.88-.75 1.83 0 .13-.09.25-.13.38l-1.09.08c0 .6 0 1.12-.05 1.61-.24.36-.52.11-.76.19l-.34-.47h-1.84l-.27-.39h-.85l-.58-.59-.51.46-.3-.38H25l-.35-.47h-.73l-.61-.93H23l-.9-1.35h-.59q-.07-.36-.18-.78c-.21-.34-.49 0-1-.42l-2-1.55h-.75c-.27-.15-.36-.71-.69-.44l-.46-1.32.59-.45v-.82c-.19-.4-.47-.17-.72-.24-.07-.08-.18-.14-.23-.25a12.33 12.33 0 0 1-.95-2.9 12.68 12.68 0 0 0-.61-1.93v-.93a7.3 7.3 0 0 1-.58-1.93c0-.67-.4-1-.39-1.66a3.52 3.52 0 0 0-.48-1.53c-.24-.5.11-1.3-.42-1.6.07-.62-.45-1-.34-1.66 0-.27-.21-.63-.28-1s0-.62-.16-.83-.17-.53-.16-.83a2 2 0 0 0-.27-1.24c-.14-.21-.07-.71-.13-1.06a1.16 1.16 0 0 0-.22-.34v-1.38a1.16 1.16 0 0 1-.21-.35 12.63 12.63 0 0 0-.66-1.91 2.14 2.14 0 0 1-.08-.65c0-.14 0-.35-.05-.42a5.69 5.69 0 0 1-.62-1.47 2.75 2.75 0 0 1-.32-1.66c-.37-.33-.39-1-.6-1.49a4 4 0 0 1-.33-2.22l-.3-.44v-1.79l-.32-.56v-.87l-.32-.52v-1.36c-.44-.63-.47-1.6-.89-2.24a9.89 9.89 0 0 0-.67-2.66v-1.59l-.32-.52v-2.31l-.19-.26c-.07-.11-.13-.17-.13-.23v-3.21l-.29-.43v-2.77l-.31-.45v-2.71l-.32-.58v-1.3l-.32-.55v-1.81L3.5 692v-2.3l-.3-.43c-.07-.87 0-1.86 0-2.84l-.3-.43v-3.7l-.34-.49V679l-.33-.49v-2.31l-.23-.41v-9.7l-.32-.5v-.91l.3-.49c.13-.51-.23-.65-.33-1.11l.31-1.65v-10.69l-.27-.39V649l.29-.48v-6.91c-.36-.34-.3-1.06-.6-1.49-.1-.15 0-.58 0-.85l.28-.41v-5.59l-.25-.47v-12.59l.27-.4v-3.2l.32-.53v-6l-.35-.56.1-.34c.2-.43.25-.49.25-.56a3.49 3.49 0 0 0 0-.46v-5.78a1.66 1.66 0 0 1 0-.22l.26-.38-.27-.5v-3.56l-.4-.83.38-.76v-1.32l-.3-.49.23-.34a4.51 4.51 0 0 0 0-1.51l-.25-.47.27-.4v-4.13c-.18-.47-.37-1-.61-1.57v-3l.59-1.6v-4.14l-.27-.4v-2.31L1.3 574v-10.69l-.3-.42v-2.78l.3-.48v-7.39l.31-.48v-.91l-.29-.48v-11.12l.27-.39v-2.4l-.27-.39v-2.79l.29-.48v-1.34l.39-.73-.37-.73v-.92l.26-.39v-1l-.24-.37V523l.26-.39v-3.72l-.28-.47v-.44l.31-.5v-1.84l-.23-.33a2.12 2.12 0 0 1-.08-.41v-4.81c.09-.15.17-.26.28-.41v-7.87l-.32-.74.33-.78v-.83l-.28-.47.29-.48v-2.31l-.23-.34a2.6 2.6 0 0 1-.05-1.08l.26-.38v-6.05c0-.07-.14-.24-.25-.46v-1.45l.27-.39V481l-.3-.48v-.91l.3-.49-.22-.33a1.86 1.86 0 0 1-.08-.41v-3.87l.28-.42v-1.84a5 5 0 0 1-.6-2.34l.31-.5v-12l-.21-.29a2.45 2.45 0 0 1-.09-.42v-3l.28-.41v-3.81l-.25-.37.27-.5v-1.81l-.61-1.57V443l.23-.32a5 5 0 0 0 .07-1.55l-.31-.35v-5.18l.33-.6-.33-.8v-10.65l.26-.39-.3-.5v-4.14L.7 418l.26-.39v-9.29c0-.07-.12-.24-.24-.48v-1l.26-.39v-1.86l-.28-.48v-.44c0-.16.2-.33.31-.49v-6.46l-.36-.59.33-1V394l-.32-.73.33-.79v-8.23l-.29-.49v-2.27L.38 381v-.9l.32-.53v-2.74l.27-.39V375l-.26-.38v-1.82l-.32-.56v-.87l-.32-.51.31-.5V369l.59-.87v-1.85a4.91 4.91 0 0 1-.6-2.28l-.3-.49a1 1 0 0 1 .31-.94v-.91l.29-.48v-2.81c-.36-.28-.25-.79-.31-1.22a4.13 4.13 0 0 0-.36-.9l.36-.62v-2.27l.63-1v-2.75c-.11-.21-.31-.42-.29-.55.16-.85-.59-1.46-.27-2.33l.28-.4v-1.86L1 344v-.93l-.61-.94v-2.78c.09-.13.2-.22.23-.35.12-.54 0-1.19.39-1.61v-2.65l-.3-.44v-3.71l.29-.49v-1.35l.32-.51v-1.84l.28-.4v-1l.26-.37v-5l.31-.6v-1.9l-.27-.4v-1.81l-.32-.53V314l.3-.49v-1.41l-.29-.48v-3.31c.49-.35.53-1.22.91-1.77v-2.26l.32-.52v-4.68l-.52-.26c0-.05-.09-.11-.09-.17v-3.68l.23-.34a.48.48 0 0 0 .08-.18V289.77c0-.14.27-.1.44-.17l.44-1.25v-2.62l-.28-.48v-.87l-.32-.52v-2.32l.59-.83v-2.45l-.57-.84a2.22 2.22 0 0 1 0-.63c.16-.6.37-1.17.61-1.94v-1.62l-.3-.48v-.91l.33-.55c0-.21-.09-.41-.14-.63l-.36.47-.46-.67v-.93l.31-.48v-.91l-.31-.48c-.12-.51.23-.66.29-.91v-1l-.27-.39V262l.92-1v-3.53l.23-.34a4.66 4.66 0 0 0 .06-1.54l-.26-.38v-1.41l.23-.43c0-.38.21-.84-.15-1.2l-.21.87h-.39c-.06-.09-.13-.14-.13-.2V246l-.32-.52.22-.32a2.07 2.07 0 0 0 .08-.42v-3.87l-.61-.9.28-.5v-3.68l-.29-.48v-1.37l.31-.51v-.74L3 231.4l.48-.15-.34-.83.34-.76v-4l.33-.52c.11-.46-.18-.65-.32-1v-1.36l-.56-.78c-.19-.42.21-1.16-.39-1.35l.32-.58-.32-.52a4.71 4.71 0 0 1 .14-.57c.06-.19.16-.35.25-.56l-.35-.71v-1l.42-.21.45-1.26v-1.77l-.61-.6v-3.5l-.56-.82c-.21-.63.09-1.08.22-1.62s-.07-1.09.42-1.29l-.71-1.95v-1.26l.29-.42v-1.46l.61-.9v-2.78l.29-.43v-2.78l-.29-.49v-.43a1.92 1.92 0 0 1-.93-1c-.11-.49.19-.68.3-1-.06-.67-.56-1.16-.23-1.95.33.16.64.65 1.1.25l.08-.51-.64-1a4.91 4.91 0 0 1 .6-2.23v-1.56l-1-1.21.39-1.24v-1.58l.28-.41a2.28 2.28 0 0 0-.09-1.26 3.76 3.76 0 0 1-.48-2 2.17 2.17 0 0 0 .94-1v-1.32l.33-.54v-2.27l.24-.35c.26-.73-.16-1.25-.28-1.85s-.57-.75-.92-1v-.92l-.31-.48c-.12-.51.23-.66.33-1.09L2.49 164l.76-.8-.67-1.06v-1.4l.26-.39-.32-.74.34-.78V158l-.28-.47.59-.93c.11-.52-.19-.7-.29-1 0-.73.4-.88.61-1.34v-.88l.33-.53-.82-1.13a1.37 1.37 0 0 1-.09-.29V147l.29-.54a2.29 2.29 0 0 0 0-.59c-.12-.51-.29-1-.45-1.5l-.32.48a3.35 3.35 0 0 1-.39-.59 13.89 13.89 0 0 1-.39-1.38 3.6 3.6 0 0 1 0-.71l.47-.15c.32-.44.05-.75-.18-1.09v-2.3c.35-.34.26-1.1.62-1.46v-2.28l.29-.43v-3.7l.3-.45v-2.86l-.26-.39v-1.77a3.17 3.17 0 0 1-.43-1.17l-.46-.19c-.23-.31 0-.73-.12-1.05l.31-.46v-.9c0-.28.24-.54.36-.79l-.35-.66v-4.67l.27-.39-.29-.5v-1.83l.3-.48v-1.85l-.28-.41v-1l-.2-.42v-4.62l-.61-.9a4.41 4.41 0 0 1 .07-1.61l.43.33c.22-.49 0-1 .09-1.39L.7 96.78V95.7l-.63-1.63v-2.23l.26-.39c.12-.92 0-1.91.07-2.89l.28-.4v-7c.38-.41.76-.07 1.07-.26l.64.94.7.06.36-.82c-.34-.66-1-.74-1.39-1.52-.93-.21-1-1.51-1.5-2.53l.81-.71h.41l.34.44c0-.15.1-.28.13-.41.15-.59-.21-.95-.32-1.42a4.82 4.82 0 0 0-.9-2v-1.48l.27-.4v-1.34l.32-.54V66l-.22-.4a5.44 5.44 0 0 1-.09-1.52l-.22-.33a1.87 1.87 0 0 1-.09-.41v-2l.28-.41v-2.72l.35-.67v-8.73l.29-.43v-6.44l.33-.53v-1.82l.63-1V37l.47-1.33c.15-.45.53-.36.75-.65a1.92 1.92 0 0 0 0-.22V33l.88-.9.71-2.12v-1.1c.24-.39.53-.05.78-.27.13-.61.59-1.13.4-2.06.22-.29.45-.6.69-.89a2.12 2.12 0 0 0 .35-.95 7 7 0 0 1 .43-1.12h.34a3.76 3.76 0 0 0 .42-.88 1.41 1.41 0 0 1 .57-1c.39-.29.79-.56 1.3-.92h.46c.48-.32.45-1.16.79-1.61s.6-.86.94-1.36c0-.46 0-1 .05-1.55l.46-.16c.49-.72-.15-1.29-.18-2l.44-.69.35.4h.88l.36.46c.23-.5.74-.36 1-.9h1.54l.23-.34c.29-.3.76.16 1-.5l1 .78.29-.39h1.28l.19-.79c0-.05.07-.13.11-.13H24a4.79 4.79 0 0 0 .45-.69 2.88 2.88 0 0 0 .08-.65h.81c0 1.17.74 1.25 1.2 1.8h1.22l.22-.33s.08-.12.12-.12h1.53l.28-.41h1.5l.46-.52H34l.33-.49h1.26l.28-.42h2.8l.41-.55.59.49.33-.35h1.82l.45-.53h2.47l.26-.43h1.86l.35-.47h1.86l.23-.32c.08-.1.08-.15.11-.15h2.5l.23-.34c.08-.11.08-.12.12-.12h4l.31-.46h2.19l.33-.49h3.13l.3-.46h2.8l.35-.47h.61l.33.44.23-.33s.08-.11.12-.11h3.29a.57.57 0 0 0 .14 0l.25-.37h2.26l.24.36h1.33l.26-.39h2.2l.33.44h.61l.33-.45h4.42l.21.89h1.69c0 .27.08.48.13.8l.43.56.31-.38.32.44h.62l.34-.48h1.55l.29-.42H91l.3-.45h1l.31.45h10l.28.42h2.51l.32-.44.22.32c0 .05.08.13.12.13h3.42l.27.41h3.38l.42.48h4l.38.48h.92l.49-.55.56.64.57-.48.6.88h1.25l.29.43.39-.45h.91l.34-.46.27.4c.61.16 1.28 0 1.93.09l.32.39.57-.84c.32-.2.46.31.66.36a1 1 0 0 1 .63.51h1.57l.28-.41 1-.08.33-.4.31.45h1.87l.29.43h1.26l.32-.44h2.81l.33.45c.34.18.44-.32.62-.43h.64l.27.39h1.31l.26-.39h.9l.42.45c.47-.06.58-.69.87-.93h1.24l.34.43.27-.4h.76c.37-.11.46-.67.81-.48l.34.43h.86l1.19-1 .46.49H153l.32-.37h3.17l.26.39h.95l.33-.43h1.85l.35-.47h8.33l.86-.65c.33-.26.49-.72.79-1.16.22.11.31.67.64.36l.35 1.09.8-.57.5.55c.34.31.67-.44 1.19-.53l.48.94h2l.43.49c.43-.12.56-.59.87-.94H179l.3-.44h2.48l1 .84.36-.49.72.6.65-1 .62.5.48-.52h1.21l.27-.4c.4-.21.86 0 1.28-.09l.62.91h1.33l.33-.87h1.46l.49-.59.5.56h.94l.26-.4h.7l.28.42h1.25l.28.41.52-.52.82 1c0-.23.09-.43.15-.75l.33-.18.25-.22a4 4 0 0 1 .42-.28l.38.48.32-.38h1.23l.66-.93h.6c.31.41.66 1 1 1.47.57-.33.82-1.06 1.2-1.45h2.51l.59.87.34-.41H211l.32.44h.63l.57-.87h2.58l.4.49.51-.46.49.47.52-.59c.26-.13.38.31.57.48h1.25l.23-.34c.59-.51 1 .58 1.67.31l.46 1h2.32l.33-.45h.61l.33.45h1.55l.34-.42c.26.32.41.75.8.94l.48-.5h1.2l.33.45h.62l.22-.33c.34-.28.71 0 1-.14l.36.45.27-.4h3.4l.76-1c.43 0 .55.55.79.81 0 0 .08.12.13.12h1.5l.42-.52 1.2.91c.14-.14.29-.44.59-.42.15 0 .23-.49.58-.41l.4.41c.44.14 1-.06 1.54.07l.41.51.58-.52h4.33c.17.08.25.65.7.3l.24-.32h3.74l.39-.54.68.48h4l.24-.37h1.17c.46-.55 1.08-.64 1.33-1.4.36-.2.49.25.71.45h.89l.33.42h2.51l.27-.39h.95c.15-.26.44-.51.46-.8 0-.56.32-.75.5-1.09h.93l.36.48.21-.87.72-.13a3.41 3.41 0 0 0 .57-1.31h.64l.32.42.33-.45h.61l.23-.33c.09 0 .18-.12.28-.12h1.61a12.5 12.5 0 0 0 1 .85c.3.22.74-.12 1 .52h.9a4.7 4.7 0 0 1 1.19 2.73c.72-.11 1.24.89 1.9.51.27.12.37.65.72.47l.33-.45h.92l.34-.45.22.33c.34.26.7 0 1.08.17l.13-.8.37-.24c.42.9 1.22 1 1.61 1.94l.59-.87.67.49c.19-.41.36-.8.47-1h.79l.33.46c.66.09.67-.85 1-1.54.08.89 0 1.58.05 2.25l.46.67h.94l.71-1 .59.49.22-.32 1.09.84a8.29 8.29 0 0 0 1.29 0c-.14-.41-.23-.71-.34-1l.45-.71c.32.1.43.55.68.82l.38-.49.16 1.35.48.12.15-1.29c.5-.47.59.37.88.5v.53l.83.63.88-1.81.6.89h1.32l.27-.39.34.45.29-.93h.34l.58.87.33-.39.33.41h1.22a2.92 2.92 0 0 1 .67-1.35 2.46 2.46 0 0 1 .56 1.32h4.39c.56-.57 1.36-.85 1.52-2.14.23-.24.49-.1.77-.1a3.07 3.07 0 0 0 .2.78 1.11 1.11 0 0 1 .2.85 2.16 2.16 0 0 1 .54.29c.16.18.29.44.56.34l.64-.89.22.33c.1 0 .19.12.28.12h4.49l.43-.54.6.51h.86l.32-.41h.62l.32.43h.92l.36.5A3.2 3.2 0 0 0 326.63 4l.15-.77.36.48.33-.45c.43-.12.66.81 1.13.46.3.23.57.56 1 .48a6.93 6.93 0 0 1 1.29 0l.33.39.52-.47.49.54h.89l.34.45.26-.39a3.43 3.43 0 0 1 .4-.06h.52l.41-.46h9.41a3.86 3.86 0 0 1 .89-1.86h1.25l.3-.43a5.46 5.46 0 0 1 1.14 0 5.33 5.33 0 0 0 .65.44 6.2 6.2 0 0 1 1.32.88 1.06 1.06 0 0 1 .18.35 2.29 2.29 0 0 1 0 .5l.46.18.3.41h3.43l.32.44c.34.15.47-.28.73-.51l.65.54h6.77l.29.43h3.73l.35.47.33-.44h.92l.36.47h1.54l.27.41.33-.38.33.4h3.7l.36.48h2.8l.35.47h2.79l.33.42.33-.39.27.4.32-.4.33.42h2.5l.19.31c.36.29.73.09 1.07.18l.22.33c.35.25.71 0 1 .13l.3-.44.34.39h3.72l1.06-.89H396l.18.28c.07.09.11.17.15.17h3.74l.29.43h1.85l.47.58.53-.48.31.38h3.72c.24.54.76.41 1 .93h4.27l1.16-.92h3.63l.29-.43h9c.28-.15.37-.71.81-.35l.24.32h.61l.33-.44h12.84l.27.39h2.57l.26-.38.34.41h7.19l.33-.43h15.28l1.07.92h.74c.47.41 1.06.55 1.32 1.39.52-.27.85.43 1.27.49l.36-.48.22.32c.34.27.7 0 1.08.18 0-.24.09-.48.13-.72A3.17 3.17 0 0 0 475 9.08l.56.6c.22-.52.73-.39 1-.89.41.05.65-.79 1.12-.46l1.1-.91h1.46l.35-.47h4.06l.34.47h.62c.22.59.62.4 1 .51 0 .18.07.39.12.7s.43.07.66.18.33.4.5.42a.76.76 0 0 1 .59.63c.1.66.55 1 .65 1.45a3.65 3.65 0 0 0 .59 1.27c.29.45.59.87.77 1.14 1 .53 1.33 1.75 2 2.47h.57l.35.47h1.87a5.51 5.51 0 0 0 .56.81 1.62 1.62 0 0 0 .53.29v.51a2.72 2.72 0 0 0 .24.24c1.15.75 1.14.76 1.64 2.23a5.25 5.25 0 0 0 .77 1.9h1.45c.35.29.65.55.95.78s.76.3.84.83a3.6 3.6 0 0 0 .57 1.28c.17.34.16.85.43 1.13a3.46 3.46 0 0 0 .28 1.44 6.44 6.44 0 0 1 0 1.59l.49 1.33.45 1.29v2.59l.32.52v3.68a5.29 5.29 0 0 1 .67 2.91l.45.14.43.63v.89l.32.53v4.59l.36.58-.33 1.08V52l-.35.61a5.33 5.33 0 0 0 .95 2.23v.93l-.32.5v1.83l-.31.45v1c0 .37-.16.52-.25.78s0 .75-.14 1.06-.29.43-.24.78a1.12 1.12 0 0 1-.31 1V65l-.32.51v2.78l.22.3a2.26 2.26 0 0 1 .09.42v3.9l-.27.4v7.77l-.31.6a2.82 2.82 0 0 0 .22 1.84c.11.16.05.58.06.83s-.47.51-.23 1.17l.22.35-.28.4v1.39l-.3.45.56 1.6v1.17l.33.54v1.37l-.31.49v1.37l-.3.48V96l.3.52v3a1 1 0 0 1 0 .2l-.24.36v2.4l.26.4v6l-.29.49v11.13l-.31.51v7.38l.31.51v1.26l.28.56v2.17l.31.59v3.76l-.27.39v9.73l.3.48v3.68c-.35.27-.27.92-.53 1.3s.1 1.1-.34 1.4c0 .52-.08 1-.11 1.55l-.25.36v2.33l.28.48v1.84l-.3.48v1.83l.32.51v8.77l.26.38c.13.92 0 1.92.08 2.89l.28.41v8.79l.29.44v12l.33.55v4.61l-.31.48v4.63l-.21.3a2.32 2.32 0 0 0-.1.42v3.44l.28.4v6.53l-.25.48v2.34l.26.4v3.71l-.28.49v1.82a11.4 11.4 0 0 1 .61 1.91c0 .66.47 1.15.36 1.87.48.32.09 1.18.44 1.58.21.23.1.55.15.83a8.64 8.64 0 0 0 .3.95v.74l-.3.48v3.69l.22.33a3.38 3.38 0 0 1 .09.41v5.25l-.29.52.26.39v1.94l-.27.39v2.78a2.51 2.51 0 0 1 .33.92c0 .28.35.51.57.8.07.69 0 1.37 0 2-.59.61-.69 1.72-1.25 2.28v1.39l-.32.5v9.25l.23.33a2.07 2.07 0 0 1 .08.42v3.37l-.37.65.35.88v7.2l.32.56v1.84l-.29.48v3.25l.28.38c.08.58 0 1.26 0 1.94l.22.32a3.1 3.1 0 0 1 .08.42v2.94l-.28.42v6c.3.57.38 1.48.9 1.87v1.44l-.91 1.33v7l.26.46-.27.49v9.69l.3.48v6.93l-.36.57.34 1.05v21.5l.31.45-.27.5v4.61l.33.55-.38 1.16.38.75-.32 1v8.21l.26.38-.27.5v2.76l.29.48v2.3l-.31.48v2.31l.3.44v1.86l-.29.43.25.49v1.91l-.27.4.3.49v.91l-.31.48v.86l.3.48v4.17l-.27.41.26.5v15.64l.32.56v.91l-.29.48V413l.31.51v12l.31.51a3.57 3.57 0 0 0 0 2.67l-.31.53v.91l.29.46a1 1 0 0 1-.3.92v1.4l.3.49c.12.53-.25.66-.33 1.16l.32.76v5.91l-.29.48v4.15l.31.48v.91l-.31.48v8.8l.27.39v6.38l.32.63v9.59l.32.57-.28.48v1.36l.38.7-.38.73c-.1.48.19.67.28.9v1l-.27.4.26.46-.34.74.37.72v8.29l-.23.35c-.13.29.13.3.2.7v5.42c0 .06-.13.24-.24.46l.26.48v6l-.29.48V505l.29.47a1.09 1.09 0 0 1-.28.92v1.42l.26.39v7.44c0 .07-.13.25-.25.46v1.9l.27.4v1.39l-.3.48v1.36l-.31.5v2.31l.23.34a1.86 1.86 0 0 1 .08.41v7.11l-.28.41v10.1l-.31.58.27.48v5.54l-.29.46a1 1 0 0 0 .29.92v6.5l-.27.4v2l.23.34c.08.13-.07.21-.12.31a.8.8 0 0 1-.13.19v4.64l.29.49v.91l-.3.48v18.49l-.31.48c-.13.51.22.66.34 1.11l-.32.85v2.7l.27.39v3.72l-.29.48v.91l.3.48v2.76l-.3.48v.91l.31.52v3.11l-.27.51c0 .39-.19.85.12 1.21s.08.71.16 1c-.11.37-.45.53-.33 1l.31.49v4.61l-.36.58.33 1v6.78c0 .06-.13.24-.24.46l.26.48v3.22l-.29.48v.91l.3.48v19l-.28.41c0 .44 0 1-.05 1.47l-.24.35.56 1.62v4.92l-.29.49v1.37l.3.48v4.15l-.36.59.33.94V667l-.23.43.32.76-.37.73v1.34l.3.4v1.92l-.27.39v5.2l.27.4v1.39l.3.44v3.72l-.28.48v1.34l-.33.51v1.38l.32.49v.81l-.3.61v1.77l-.3.45v4c-.1.45-.41.61-.35 1.07a.93.93 0 0 1-.3.94v1.41l-.32.52v1.84l-.29.42v.91l-.28.57v1.81c-.41.32-.32.82-.33 1.32l-.3.52V709l-.32.54v1.34l-.32.52v.9l-.31.5a2.27 2.27 0 0 1 0 .7 23.77 23.77 0 0 0-.92 3.14v1.67l.29.47-.3.48c-.12.48.2.65.31 1-.05.42.17 1-.28 1.18v2.33l-.32.6v1.29l-.32.56v8.6Z"/></svg>